HIERARCHY
ROOT hip
{
  OFFSET 0 0 0
  CHANNELS 6 Xposition Yposition Zposition Zrotation Yrotation Xrotation
  JOINT abdomen
  {
    OFFSET 0 20.6881 -0.73152
    CHANNELS 3 Zrotation Xrotation Yrotation
    JOINT chest
    {
      OFFSET 0 11.7043 -0.48768
      CHANNELS 3 Zrotation Xrotation Yrotation
      JOINT neck
      {
        OFFSET 0 22.1894 -2.19456
        CHANNELS 3 Zrotation Xrotation Yrotation
        JOINT head
        {
          OFFSET -0.24384 7.07133 1.2192
          CHANNELS 3 Zrotation Xrotation Yrotation
          JOINT leftEye
          {
            OFFSET 4.14528 8.04674 8.04672
            CHANNELS 3 Zrotation Xrotation Yrotation
            End Site
            {
              OFFSET 1 0 0
            }
          }
          JOINT rightEye
          {
            OFFSET -3.6576 8.04674 8.04672
            CHANNELS 3 Zrotation Xrotation Yrotation
            End Site
            {
              OFFSET 1 0 0
            }
          }
        }
      }
      JOINT rCollar
      {
        OFFSET -2.68224 19.2634 -4.8768
        CHANNELS 3 Zrotation Xrotation Yrotation
        JOINT rShldr
        {
          OFFSET -8.77824 -1.95073 1.46304
          CHANNELS 3 Zrotation Xrotation Yrotation
          JOINT rForeArm
          {
            OFFSET -28.1742 -1.7115 0.48768
            CHANNELS 3 Zrotation Xrotation Yrotation
            JOINT rHand
            {
              OFFSET -22.5879 0.773209 7.07136
              CHANNELS 3 Zrotation Xrotation Yrotation
              JOINT rThumb1
              {
                OFFSET -1.2192 -0.487915 3.41376
                CHANNELS 3 Zrotation Xrotation Yrotation
                JOINT rThumb2
                {
                  OFFSET -3.37035 -0.52449 3.41376
                  CHANNELS 3 Zrotation Xrotation Yrotation
                  End Site
                  {
                    OFFSET -1.78271 -1.18214 1.43049
                  }
                }
              }
              JOINT rIndex1
              {
                OFFSET -7.75947 0.938293 5.60832
                CHANNELS 3 Zrotation Xrotation Yrotation
                JOINT rIndex2
                {
                  OFFSET -2.54057 -0.884171 1.56538
                  CHANNELS 3 Zrotation Xrotation Yrotation
                  End Site
                  {
                    OFFSET -1.62519 -0.234802 1.16502
                  }
                }
              }
              JOINT rMid1
              {
                OFFSET -8.24714 1.18213 3.41376
                CHANNELS 3 Zrotation Xrotation Yrotation
                JOINT rMid2
                {
                  OFFSET -3.10165 -0.590103 1.0647
                  CHANNELS 3 Zrotation Xrotation Yrotation
                  End Site
                  {
                    OFFSET -2.48547 -0.328903 0.83742
                  }
                }
              }
              JOINT rRing1
              {
                OFFSET -8.82822 0.546677 1.51678
                CHANNELS 3 Zrotation Xrotation Yrotation
                JOINT rRing2
                {
                  OFFSET -2.60934 -0.819778 -0.0198488
                  CHANNELS 3 Zrotation Xrotation Yrotation
                  End Site
                  {
                    OFFSET -2.33842 -0.294052 0.168128
                  }
                }
              }
              JOINT rPinky1
              {
                OFFSET -8.27202 -0.0477905 -0.4584
                CHANNELS 3 Zrotation Xrotation Yrotation
                JOINT rPinky2
                {
                  OFFSET -1.82734 -0.647385 -0.700984
                  CHANNELS 3 Zrotation Xrotation Yrotation
                  End Site
                  {
                    OFFSET -1.69225 -0.51767 -0.607171
                  }
                }
              }
            }
          }
        }
      }
      JOINT lCollar
      {
        OFFSET 2.68224 19.2634 -4.8768
        CHANNELS 3 Zrotation Xrotation Yrotation
        JOINT lShldr
        {
          OFFSET 8.77824 -1.95073 1.46304
          CHANNELS 3 Zrotation Xrotation Yrotation
          JOINT lForeArm
          {
            OFFSET 28.1742 -1.7115 0.48768
            CHANNELS 3 Zrotation Xrotation Yrotation
            JOINT lHand
            {
              OFFSET 22.5879 0.773209 7.07136
              CHANNELS 3 Zrotation Xrotation Yrotation
              JOINT lThumb1
              {
                OFFSET 1.2192 -0.487915 3.41376
                CHANNELS 3 Zrotation Xrotation Yrotation
                JOINT lThumb2
                {
                  OFFSET 3.37035 -0.52449 3.41376
                  CHANNELS 3 Zrotation Xrotation Yrotation
                  End Site
                  {
                    OFFSET 1.78271 -1.18214 1.43049
                  }
                }
              }
              JOINT lIndex1
              {
                OFFSET 7.75947 0.938293 5.60832
                CHANNELS 3 Zrotation Xrotation Yrotation
                JOINT lIndex2
                {
                  OFFSET 2.54057 -0.884171 1.56538
                  CHANNELS 3 Zrotation Xrotation Yrotation
                  End Site
                  {
                    OFFSET 1.62519 -0.234802 1.16502
                  }
                }
              }
              JOINT lMid1
              {
                OFFSET 8.24714 1.18213 3.41376
                CHANNELS 3 Zrotation Xrotation Yrotation
                JOINT lMid2
                {
                  OFFSET 3.10165 -0.590103 1.0647
                  CHANNELS 3 Zrotation Xrotation Yrotation
                  End Site
                  {
                    OFFSET 2.48547 -0.328903 0.83742
                  }
                }
              }
              JOINT lRing1
              {
                OFFSET 8.82822 0.546677 1.51678
                CHANNELS 3 Zrotation Xrotation Yrotation
                JOINT lRing2
                {
                  OFFSET 2.60934 -0.819778 -0.0198488
                  CHANNELS 3 Zrotation Xrotation Yrotation
                  End Site
                  {
                    OFFSET 2.33842 -0.294052 0.168128
                  }
                }
              }
              JOINT lPinky1
              {
                OFFSET 8.27202 -0.0477905 -0.4584
                CHANNELS 3 Zrotation Xrotation Yrotation
                JOINT lPinky2
                {
                  OFFSET 1.82734 -0.647385 -0.700984
                  CHANNELS 3 Zrotation Xrotation Yrotation
                  End Site
                  {
                    OFFSET 1.69225 -0.51767 -0.607171
                  }
                }
              }
            }
          }
        }
      }
    }
  }
  JOINT rButtock
  {
    OFFSET -8.77824 4.35084 1.2192
    CHANNELS 3 Zrotation Xrotation Yrotation
    JOINT rThigh
    {
      OFFSET 0 -1.70687 -2.19456
      CHANNELS 3 Zrotation Xrotation Yrotation
      JOINT rShin
      {
        OFFSET 0 -36.8199 0.73152
        CHANNELS 3 Zrotation Xrotation Yrotation
        JOINT rFoot
        {
          OFFSET 0.73152 -45.1104 -5.12064
          CHANNELS 3 Zrotation Xrotation Yrotation
          End Site
          {
            OFFSET -1.1221 -3.69964 12.103
          }
        }
      }
    }
  }
  JOINT lButtock
  {
    OFFSET 8.77824 4.35084 1.2192
    CHANNELS 3 Zrotation Xrotation Yrotation
    JOINT lThigh
    {
      OFFSET 0 -1.70687 -2.19456
      CHANNELS 3 Zrotation Xrotation Yrotation
      JOINT lShin
      {
        OFFSET 0 -36.8199 0.73152
        CHANNELS 3 Zrotation Xrotation Yrotation
        JOINT lFoot
        {
          OFFSET -0.73152 -45.1104 -5.12064
          CHANNELS 3 Zrotation Xrotation Yrotation
          End Site
          {
            OFFSET 1.1221 -3.69964 12.103
          }
        }
      }
    }
  }
}
MOTION
Frames:	9
Frame Time:	0.00833333
-53.5175 83.7193 29.4999 -0.0 -0.0 -0.0 -0.0 -4.771896 -180.0 0.0 -4.771896 180.0 0.245875 19.608241 -158.802917 7.579128 18.139248 157.548848 -0.0 -0.0 0.0 -0.0 -0.0 0.0 -155.809564 -5.55542 162.26674 17.430074 2.184344 16.717053 177.10286 32.587257 -177.978627 -10.281347 30.517627 1.736714 16.892535 -16.71446 -0.117257 8.259691 -28.536373 -20.363767 -138.493513 4.896353 114.8648 -48.7146 61.174035 39.239231 -175.766492 -50.334504 144.098384 -1.861798 16.87552 5.862571 -0.021291 -1.725169 -0.542387 -134.004961 71.54825 137.554284 13.634108 46.898477 11.157961 -174.613316 70.583129 -142.127079 -2.185877 -15.733598 3.202037 167.363721 53.659181 -167.780104 2.449506 30.583406 29.49587 -162.027338 -36.695671 -139.229135 103.199394 36.330979 -60.111426 55.692654 -4.663543 -44.355431 -37.215945 -57.917763 0.643014 171.293741 -24.657674 -102.5658 141.109072 35.601151 -129.174163 81.626953 66.294054 -75.918165 132.481743 54.102976 -155.533585 -11.765285 -0.301026 15.740514 140.595611 -1.002625 137.666435 22.958171 -40.974213 26.713594 -0.0 0.0 -0.0 -0.0 -0.0 -0.0 7.066731 4.141724 76.966642 -150.564774 2.890337 88.493313 -0.0 0.0 -0.0 -0.0 -0.0 -0.0 -7.066731 4.141724 -76.966642 150.564774 2.890337 -88.493313
-51.89520000000001 83.4199 29.8385 -0.0 0.0 -0.0 0.0 -0.0 0.0 0.0 0.0 -0.0 -8.133567 10.422116 -81.502261 11.496437 6.51512 81.58876 -0.0 0.0 -0.0 -0.0 0.0 -0.0 -155.460052 -3.227798 161.777534 10.644538 22.865226 19.247031 95.610783 75.655572 -98.674228 -37.169672 64.50263 21.338514 -178.927535 -16.453687 89.421826 -31.445508 -31.098262 -0.520937 -19.170572 24.114561 13.380841 -94.001749 53.053712 63.985368 -169.08961 -33.247392 145.374931 -158.035421 2.052452 140.735464 -145.12196 1.973689 -179.748387 -143.700537 -13.994148 -176.888887 -80.939074 -51.227554 -79.359772 4.21203 1.851479 2.039329 155.54842 -3.80427 -161.899949 147.211654 20.940447 -159.069852 -76.515646 -68.968118 -53.970284 145.265004 65.271255 -122.581575 10.48169 9.910501 -2.492634 164.120027 -66.927751 -106.629128 159.053898 -31.319752 -122.653982 168.929591 -45.764194 -112.095179 36.036059 51.723116 -29.832321 24.468605 50.982654 -17.737144 -0.000474 0.063775 -0.020036 150.341211 60.771714 -154.135146 150.577948 31.033784 146.363897 -6.993396 6.999194 0.742712 0.0 0.0 -0.0 -0.0 -0.0 -0.0 4.304493 0.86717 39.030537 51.159233 -50.862044 -36.786167 0.0 0.0 -0.0 -0.0 -0.0 -0.0 -4.304493 0.86717 -39.030537 -3.299917 -5.358631 41.931592
-50.311499999999995 83.1334 30.163799999999995 -0.0 -0.0 -0.0 -0.0 -4.771896 -180.0 0.0 -4.771896 180.0 0.245875 19.608241 -158.802917 7.579128 18.139248 157.548848 -0.0 -0.0 0.0 -0.0 -0.0 0.0 -155.809564 -5.55542 162.26674 17.430074 2.184344 16.717053 -16.232563 -61.707388 -46.90794 146.31727 -56.040045 126.931526 -5.433768 5.264911 1.077842 -155.524989 -63.679573 114.464962 37.215945 -57.917763 -0.643014 -110.679644 33.015872 85.369812 78.537123 -80.919176 49.688177 -164.3391 -6.743498 140.252329 -72.757246 -72.143382 -89.772159 12.449159 11.913787 7.568679 -145.173549 12.06758 -141.82295 3.56315 -3.104088 -2.921759 -2.185877 -15.733598 3.202037 167.363721 53.659181 -167.780104 -15.990902 65.425746 45.148121 -175.392257 -2.187305 -145.145525 176.59845 -14.213085 -89.690967 40.163891 -21.771419 -3.248104 166.802916 -43.946278 -122.065708 -18.881092 8.073077 4.406245 153.32078 13.628946 -138.862343 81.266883 65.158703 -76.260756 0.000142 -0.018512 0.005816 5.554594 -75.353593 15.419172 8.191002 -17.575975 7.729117 96.335753 -52.811532 93.827024 -0.0 0.0 -0.0 -0.0 -0.0 -0.0 6.882802 3.713377 72.914422 -124.756715 50.85885 54.66363 -0.0 0.0 -0.0 -0.0 -0.0 -0.0 -6.882802 3.713377 -72.914422 124.756715 50.85885 -54.66363
-48.7393 82.883 30.533699999999996 -0.0 -0.0 -0.0 0.0 0.0 0.0 0.0 0.0 0.0 -8.133567 10.422116 -81.502261 11.496437 6.51512 81.58876 0.0 -0.0 -0.0 0.0 -0.0 -0.0 -9.651699 34.836178 11.199233 -65.589408 89.2499 74.767105 -95.885432 -79.025196 -106.409725 12.078422 -32.830093 4.741633 -1.583584 1.556255 0.264275 11.13614 -15.179337 -7.45207 5.741524 -9.851176 -2.890594 -71.803003 45.758903 47.531445 6.533059 -20.414937 -2.717988 -169.596967 -13.999405 142.869832 -145.119466 0.267753 -179.212454 -146.215222 15.780163 178.985996 44.735211 86.377934 -5.369007 -7.222739 -16.844792 -10.236528 80.1661 68.371792 -83.260848 -16.926784 14.142456 0.162407 -152.125706 58.977547 179.650523 169.769316 39.217207 -141.580344 5.433768 5.264911 -1.077842 -2.545124 -1.903643 -1.541428 0.327682 0.529888 -0.186114 169.659487 -8.555832 -109.61802 36.036059 51.723116 -29.832321 -90.868105 -81.173871 -63.158031 -0.004873 1.771387 -0.556475 1.353385 -62.895094 9.879996 149.198149 25.859061 145.26249 124.484758 -28.989839 123.89836 -0.0 0.0 -0.0 -0.0 -2.27635 -180.0 -7.438471 -7.594683 -92.506295 -147.907985 -24.734425 109.233671 -0.0 0.0 -0.0 -0.0 -2.27635 -180.0 7.438471 -7.594683 92.506295 147.907985 -24.734425 -109.233671
-47.1114 82.701 30.915400000000005 -0.0 -0.0 -0.0 -0.0 -4.771896 -180.0 0.0 -4.771896 180.0 0.245875 19.608241 -158.802917 7.579128 18.139248 157.548848 -0.0 -0.0 0.0 -0.0 -0.0 0.0 -155.809564 -5.55542 162.26674 17.430074 2.184344 16.717053 -16.232563 -61.707388 -46.90794 146.31727 -56.040045 126.931526 -5.433768 5.264911 1.077842 -155.524989 -63.679573 114.464962 37.215945 -57.917763 -0.643014 -110.679644 33.015872 85.369812 78.537123 -80.919176 49.688177 -164.3391 -6.743498 140.252329 -72.757246 -72.143382 -89.772159 12.449159 11.913787 7.568679 -145.173549 12.06758 -141.82295 3.56315 -3.104088 -2.921759 -2.185877 -15.733598 3.202037 167.363721 53.659181 -167.780104 -15.990902 65.425746 45.148121 -175.392257 -2.187305 -145.145525 176.59845 -14.213085 -89.690967 40.163891 -21.771419 -3.248104 166.802916 -43.946278 -122.065708 -18.881092 8.073077 4.406245 153.32078 13.628946 -138.862343 81.266883 65.158703 -76.260756 0.000142 -0.018512 0.005816 5.554594 -75.353593 15.419172 8.191002 -17.575975 7.729117 96.335753 -52.811532 93.827024 -0.0 0.0 -0.0 -0.0 -0.0 -0.0 6.882802 3.713377 72.914422 -124.756715 50.85885 54.66363 -0.0 0.0 -0.0 -0.0 -0.0 -0.0 -6.882802 3.713377 -72.914422 124.756715 50.85885 -54.66363
-45.389 82.6926 31.275799999999997 -0.0 0.0 -0.0 0.0 -0.0 0.0 0.0 0.0 -0.0 -8.133567 10.422116 -81.502261 11.496437 6.51512 81.58876 -0.0 0.0 -0.0 -0.0 0.0 -0.0 -155.460052 -3.227798 161.777534 10.644538 22.865226 19.247031 -1.810144 -57.584837 -37.648134 163.60822 -33.632321 140.248598 -7.758532 7.439094 1.682075 30.319405 -41.075427 -11.952106 -46.208543 39.652969 36.318179 -160.474678 6.663902 118.353993 149.545982 -77.525273 117.450824 -177.217949 -39.008724 139.231542 -145.118942 0.185466 -179.186604 -34.151743 -76.360282 -65.868291 1.482059 4.003653 1.360876 5.936613 18.900547 4.562472 155.54842 -3.80427 -161.899949 147.211654 20.940447 -159.069852 -7.804592 0.967974 -0.618754 8.337002 25.45769 -0.997979 -6.463714 -6.452652 0.634888 20.29089 19.137326 -14.079319 50.386399 40.826202 -40.02487 178.717284 -33.085255 -119.723758 153.32078 13.628946 -138.862343 1.519856 21.387041 -3.492988 69.297282 72.946551 -87.017042 170.560977 57.351003 175.62335 152.200278 37.330087 147.582714 24.945854 -39.911576 28.340866 0.0 0.0 -0.0 -0.0 -0.0 -0.0 6.649139 3.263768 68.510317 1.387469 -72.224379 -91.796161 0.0 0.0 -0.0 -0.0 -0.0 -0.0 -4.304493 0.86717 -39.030537 76.190918 30.361278 -11.134962
-43.7301 82.5753 31.6897 -0.0 0.0 -0.0 -0.0 -0.0 -0.0 0.0 0.0 0.0 -8.133567 10.422116 -81.502261 11.496437 6.51512 81.58876 0.0 0.0 0.0 0.0 0.0 0.0 -80.1661 68.371792 83.260848 16.928347 14.037338 -0.169172 166.547557 -0.472675 169.984426 -55.380687 70.988071 37.932236 174.054717 -22.871225 88.063103 -93.015807 18.616108 35.975534 37.215945 -57.917763 -0.643014 -173.049588 -26.415048 102.086611 -158.521826 -0.192208 142.144949 16.844901 -31.46466 -1.408538 -0.000473 -0.060845 -0.019116 -166.517527 -50.995739 178.214639 27.13312 80.263659 10.028119 -165.554897 55.800109 -144.281834 80.1661 68.371792 -83.260848 -16.928444 14.030768 0.169595 -166.526596 -0.317884 -169.987671 55.7926 71.080054 -38.316481 78.030619 38.689342 -42.41267 48.456059 0.279108 -46.798622 132.81837 12.807409 -111.109258 167.646785 -44.617747 -122.301473 160.937898 -7.488186 -143.367502 173.786753 -42.74117 -142.330766 145.121957 1.974539 179.748654 143.962233 -11.936352 177.20754 -12.632866 42.933991 -10.532639 165.519768 56.897383 146.384682 -180.0 75.749642 -0.0 -180.0 75.749642 -0.0 3.999536 0.695516 35.982648 -58.518687 27.415874 -1.097004 -180.0 75.749642 -0.0 -180.0 75.749642 -0.0 -3.999536 0.695516 -35.982648 58.518687 27.415874 1.097004
-42.1686 82.4431 31.8878 -0.0 -0.0 -0.0 0.0 0.0 0.0 0.0 0.0 0.0 -8.133567 10.422116 -81.502261 11.496437 6.51512 81.58876 0.0 -0.0 -0.0 0.0 -0.0 -0.0 -9.651699 34.836178 11.199233 -65.589408 89.2499 74.767105 -95.885432 -79.025196 -106.409725 12.078422 -32.830093 4.741633 114.538671 -50.245352 55.721798 -13.041288 -73.052242 -36.820225 24.075919 -42.306446 -5.558499 174.022963 -34.026353 98.9802 -0.219913 0.63841 0.122732 -166.349274 -4.305617 143.312361 -78.571366 -72.041604 -95.867435 -23.323923 66.687393 41.897091 -145.173549 12.06758 -141.82295 -11.280626 -29.05918 -15.870776 -2.185877 -15.733598 3.202037 169.859322 44.359988 -170.244885 6.535576 -0.076793 28.929164 -146.646717 -55.781592 -127.21474 171.706035 -9.388422 -89.948992 159.099355 -0.088978 -83.454924 10.571294 15.013433 -6.865128 -2.365078 -5.178402 3.942991 142.380299 33.885477 -130.260219 -18.971367 -43.238636 2.572578 -0.004873 1.771387 -0.556475 165.866381 -0.915452 -172.225839 152.695872 39.284564 147.93469 -3.955071 0.130439 2.990289 -0.0 0.0 -0.0 -0.0 -2.27635 -180.0 -7.438471 -7.594683 -92.506295 -147.907985 -24.734425 109.233671 -0.0 0.0 -0.0 -0.0 -2.27635 -180.0 7.438471 -7.594683 92.506295 147.907985 -24.734425 -109.233671
-40.6352 82.238 31.913199999999996 -0.0 0.0 -0.0 -0.0 -0.0 -0.0 0.0 0.0 -0.0 11.359575 6.157081 79.425429 -8.145262 10.039281 -79.321748 -0.0 0.0 -0.0 -0.0 0.0 -0.0 -80.1661 68.371792 83.260848 16.62976 26.758674 0.711594 -169.324507 -66.620729 -174.863336 0.302115 -0.963969 0.035543 14.702693 -14.614123 -0.383234 -143.31186 -50.155315 128.804103 -0.327682 0.529888 0.186114 -159.319063 5.919514 107.754643 -89.835461 60.702148 81.262754 -165.752003 -15.570598 147.142421 -0.007677 3.559155 1.118768 -164.124775 20.817837 169.471357 -159.761954 65.345539 -151.084316 -127.102939 -26.73602 -124.217868 9.651699 34.836178 -11.199233 14.000503 -74.85146 25.083321 -0.064454 35.707198 -2.165808 1.341872 4.297225 0.096782 83.814783 38.702339 -46.524468 1.067137 -15.035918 -25.742579 46.208543 39.652969 -36.318179 -92.672829 -71.82237 -48.613402 0.057679 0.167876 -0.032027 -8.313361 -25.437305 1.537877 71.925376 72.974006 -89.771887 81.041535 -72.153679 97.977761 154.16448 45.105972 148.907641 -10.054377 16.767595 -1.053346 -180.0 75.749642 -0.0 -180.0 75.749642 -0.0 -5.653997 6.44102 -81.199513 153.53622 -10.42548 -75.17449 -180.0 75.749642 -0.0 -180.0 75.749642 -0.0 0.908859 12.760875 155.6255 166.859989 31.007272 146.198369
